{"title":"John.Wick.Chapter.2.2017.1080p.BluRay.x265.10bit-z97","magnet":"magnet:?xt=urn:btih:8ffe358509859ac5230fc019c6d6c4a88826a806&dn=John.Wick.Chapter.2.2017.1080p.BluRay.x265.10bit-z97&tr=udp%3A%2F%2Ftracker.leechers-paradise.org%3A6969&tr=udp%3A%2F%2Fzer0day.ch%3A1337&tr=udp%3A%2F%2Fopen.demonii.com%3A1337&tr=udp%3A%2F%2Ftracker.coppersurfer.tk%3A6969&tr=udp%3A%2F%2Fexodus.desync.com%3A6969","uploader":"48848448","categoryP":"video","categoryS":"hd___movies","size":"1744816389","seeders":"6","leechers":"31","description":"                      &#x2500;&#x2500;&#x2500;&#x25A0; RELEASE NOTES &#x25A0;&#x2500;&#x2500;&#x2500;\r\n&#x2584;&#x2584;&#x2584;&#x2584;&#x2584;&#x2584;&#x2584;&#x2584;&#x2584;&#x2584;&#x2584;&#x2584;&#x2584;&#x2584;&#x2584;&#x2584;&#x2584;&#x2584;&#x2584;&#x2584;&#x2584;&#x2584;&#x2584;&#x2584;&#x2584;&#x2584;&#x2584;&#x2584;&#x2584;&#x2584;&#x2584;&#x2584;&#x2584;&#x2584;&#x2584;&#x2584;&#x2584;&#x2584;&#x2584;&#x2584;&#x2584;&#x2584;&#x2584;&#x2584;&#x2584;&#x2584;&#x2584;&#x2584;&#x2584;&#x2584;&#x2584;&#x2584;&#x2584;&#x2584;&#x2584;&#x2584;&#x2584;&#x2584;&#x2584;&#x2584;&#x2584;&#x2584;&#x2584;&#x2584;&#x2584;&#x2584;\r\n\r\n         John Wick Chapter 2 2017 1080p BluRay x265 10bit\r\n\r\niMDB url                       : www.imdb.com/title/tt4425200\r\niMDB Rating                    : 7.9/10 from 111,082 votes\r\nRelease                        : 2017 - February 10th\r\nGenre                          : Action, Crime, Thriller\r\nSource                         : BluRay\r\nSubs                           : ENG,FIN,DAN,SWE,NOR\r\n\r\n                    &#x2500;&#x2500;&#x2500;&#x25A0; RELEASE INFORMATION &#x25A0;&#x2500;&#x2500;&#x2500;\r\n&#x2584;&#x2584;&#x2584;&#x2584;&#x2584;&#x2584;&#x2584;&#x2584;&#x2584;&#x2584;&#x2584;&#x2584;&#x2584;&#x2584;&#x2584;&#x2584;&#x2584;&#x2584;&#x2584;&#x2584;&#x2584;&#x2584;&#x2584;&#x2584;&#x2584;&#x2584;&#x2584;&#x2584;&#x2584;&#x2584;&#x2584;&#x2584;&#x2584;&#x2584;&#x2584;&#x2584;&#x2584;&#x2584;&#x2584;&#x2584;&#x2584;&#x2584;&#x2584;&#x2584;&#x2584;&#x2584;&#x2584;&#x2584;&#x2584;&#x2584;&#x2584;&#x2584;&#x2584;&#x2584;&#x2584;&#x2584;&#x2584;&#x2584;&#x2584;&#x2584;&#x2584;&#x2584;&#x2584;&#x2584;&#x2584;&#x2584;\r\n\r\nVideo\r\nID                             : 1\r\nFormat                         : HEVC\r\nFormat profile                 : Main <a class=\"__cf_email__\" href=\"/cdn-cgi/l/email-protection\" data-cfemail=\"447574040870\">[email&#xA0;protected]</a><script data-cfhash=\"f9e31\" type=\"text/javascript\">/* <![CDATA[ */!function(t,e,r,n,c,a,p){try{t=document.currentScript||function(){for(t=document.getElementsByTagName('script'),e=t.length;e--;)if(t[e].getAttribute('data-cfhash'))return t[e]}();if(t&&(c=t.previousSibling)){p=t.parentNode;if(a=c.getAttribute('data-cfemail')){for(e='',r='0x'+a.substr(0,2)|0,n=2;a.length-n;n+=2)e+='%'+('0'+('0x'+a.substr(n,2)^r).toString(16)).slice(-2);p.replaceChild(document.createTextNode(decodeURIComponent(e)),c)}p.removeChild(t)}}catch(u){}}()/* ]]> */</script>@Main\r\nDuration                       : 2 h 2 min\r\nBit rate                       : 1 451 kb/s\r\nWidth                          : 1 920 pixels\r\nHeight                         : 800 pixels\r\nDisplay aspect ratio           : 2.40:1\r\nFrame rate mode                : Constant\r\nFrame rate                     : 23.976 (24000/1001) FPS\r\nColor space                    : YUV\r\nChroma subsampling             : 4:2:0\r\nBit depth                      : 10 bits\r\nStream size                    : 1.24 GiB (76%)\r\nWriting library                : x265 2.4+26 [64 bit] 10bit\r\nLanguage                       : English\r\nDefault                        : Yes\r\n\r\nAudio\r\nID                             : 2\r\nFormat                         : AC-3\r\nDuration                       : 2 h 2 min\r\nBit rate mode                  : Constant\r\nBit rate                       : 448 kb/s\r\nChannel(s)                     : 6 channels\r\nChannel positions              : Front: L C R, Side: L R, LFE\r\nSampling rate                  : 48.0 kHz\r\nFrame rate                     : 31.250 FPS (1536 spf)\r\nBit depth                      : 16 bits\r\nCompression mode               : Lossy\r\nStream size                    : 392 MiB (24%)\r\nLanguage                       : English\r\nDefault                        : Yes","last_updated":"2017-06-05T12:00:39.482Z","parsed":{"xt":"urn:btih:8ffe358509859ac5230fc019c6d6c4a88826a806","dn":"John.Wick.Chapter.2.2017.1080p.BluRay.x265.10bit-z97","tr":["udp://exodus.desync.com:6969","udp://open.demonii.com:1337","udp://tracker.coppersurfer.tk:6969","udp://tracker.leechers-paradise.org:6969","udp://zer0day.ch:1337"],"infoHash":"8ffe358509859ac5230fc019c6d6c4a88826a806","infoHashBuffer":{"type":"Buffer","data":[143,254,53,133,9,133,154,197,35,15,192,25,198,214,196,168,136,38,168,6]},"name":"John.Wick.Chapter.2.2017.1080p.BluRay.x265.10bit-z97","announce":["udp://exodus.desync.com:6969","udp://open.demonii.com:1337","udp://tracker.coppersurfer.tk:6969","udp://tracker.leechers-paradise.org:6969","udp://zer0day.ch:1337"],"urlList":[]}}